<svg xmlns="http://www.w3.org/2000/svg" viewBox="0 0 256 256" fill="none">
  <defs>
    <linearGradient id="gear-a" x1="44" x2="212" y1="44" y2="212" gradientUnits="userSpaceOnUse">
      <stop offset="0" stop-color="#F59E0B" />
      <stop offset="1" stop-color="#22D3EE" />
    </linearGradient>
  </defs>
  <rect width="256" height="256" rx="56" fill="#06101B" />
  <path
    d="M128 44l20 0 6 24c8 2 15 5 22 9l22-12 14 14-12 22c4 7 7 14 9 22l24 6v20l-24 6c-2 8-5 15-9 22l12 22-14 14-22-12c-7 4-14 7-22 9l-6 24h-20l-6-24c-8-2-15-5-22-9l-22 12-14-14 12-22c-4-7-7-14-9-22l-24-6v-20l24-6c2-8 5-15 9-22l-12-22 14-14 22 12c7-4 14-7 22-9z"
    fill="url(#gear-a)"
    opacity="0.24"
  />
  <path
    d="M128 66c34.242 0 62 27.758 62 62s-27.758 62-62 62-62-27.758-62-62 27.758-62 62-62zm0 32c-16.569 0-30 13.431-30 30s13.431 30 30 30 30-13.431 30-30-13.431-30-30-30z"
    stroke="url(#gear-a)"
    stroke-width="14"
  />
  <circle cx="128" cy="128" r="18" fill="#F8FAFC" />
</svg>
